<mxfile host="app.diagrams.net" modified="2024-08-13T10:00:00.000Z" agent="Qoder-AI" version="24.0.0" type="device">
  <diagram id="deployment-architecture" name="部署架构图">
    <mxGraphModel dx="2037" dy="971" grid="1" gridSize="10" guides="1" tooltips="1" connect="0" arrows="0" fold="1" page="1" pageScale="1" pageWidth="1169" pageHeight="827" background="none" math="0" shadow="0">
      <root>
        <mxCell id="0" />
        <mxCell id="1" parent="0" />
        
        <!-- 标题区域 -->
        <mxCell id="title" value="部署架构图 &gt; 云原生微服务部署架构" style="fillColor=#4DA1F5;strokeColor=none;shadow=1;gradientColor=none;fontSize=16;align=left;spacingLeft=50;fontColor=#ffffff;html=1;fontStyle=1" vertex="1" parent="1">
          <mxGeometry x="50" y="40" width="1000" height="45" as="geometry" />
        </mxCell>
        
        <!-- 互联网区域 -->
        <mxCell id="internet-zone" value="互联网" style="fillColor=#FFEEEE;strokeColor=#FF9999;shadow=0;gradientColor=none;fontSize=14;align=center;fontColor=#666666;fontStyle=1;html=1;" vertex="1" parent="1">
          <mxGeometry x="50" y="120" width="200" height="80" as="geometry" />
        </mxCell>
        
        <mxCell id="users" value="用户" style="strokeColor=#dddddd;fillColor=#ffffff;shadow=1;strokeWidth=1;rounded=1;absoluteArcSize=1;arcSize=2;fontColor=#333333;fontSize=12;fontStyle=1;" vertex="1" parent="1">
          <mxGeometry x="120" y="150" width="60" height="40" as="geometry" />
        </mxCell>
        
        <!-- Azure 云平台容器 -->
        <mxCell id="azure-cloud" value="&lt;b&gt;Microsoft Azure 云平台&lt;/b&gt;" style="fillColor=#F0F8FF;strokeColor=#4285F4;shadow=1;gradientColor=none;fontSize=14;align=left;spacing=10;fontColor=#4285F4;verticalAlign=top;spacingTop=-4;fontStyle=1;spacingLeft=40;html=1;strokeWidth=2;" vertex="1" parent="1">
          <mxGeometry x="300" y="120" width="750" height="580" as="geometry" />
        </mxCell>
        
        <!-- CDN + 负载均衡层 -->
        <mxCell id="cdn-lb-zone" value="边缘服务层" style="rounded=1;absoluteArcSize=1;arcSize=2;html=1;strokeColor=#E3F2FD;gradientColor=none;shadow=0;fontSize=12;fontColor=#1976D2;align=left;verticalAlign=top;spacing=10;spacingTop=-4;fillColor=#E3F2FD;fontStyle=1;" vertex="1" parent="1">
          <mxGeometry x="330" y="160" width="690" height="100" as="geometry" />
        </mxCell>
        
        <mxCell id="cdn" value="Azure CDN" style="strokeColor=#1976D2;shadow=1;strokeWidth=1;rounded=1;absoluteArcSize=1;arcSize=2;fillColor=#ffffff;fontColor=#1976D2;fontSize=11;fontStyle=1;" vertex="1" parent="1">
          <mxGeometry x="360" y="200" width="100" height="40" as="geometry" />
        </mxCell>
        
        <mxCell id="waf" value="Web Application&#xa;Firewall" style="strokeColor=#1976D2;shadow=1;strokeWidth=1;rounded=1;absoluteArcSize=1;arcSize=2;fillColor=#ffffff;fontColor=#1976D2;fontSize=11;fontStyle=1;" vertex="1" parent="1">
          <mxGeometry x="490" y="200" width="120" height="40" as="geometry" />
        </mxCell>
        
        <mxCell id="load-balancer" value="Azure Load&#xa;Balancer" style="strokeColor=#1976D2;shadow=1;strokeWidth=1;rounded=1;absoluteArcSize=1;arcSize=2;fillColor=#ffffff;fontColor=#1976D2;fontSize=11;fontStyle=1;" vertex="1" parent="1">
          <mxGeometry x="640" y="200" width="100" height="40" as="geometry" />
        </mxCell>
        
        <mxCell id="api-management" value="API Management" style="strokeColor=#1976D2;shadow=1;strokeWidth=1;rounded=1;absoluteArcSize=1;arcSize=2;fillColor=#ffffff;fontColor=#1976D2;fontSize=11;fontStyle=1;" vertex="1" parent="1">
          <mxGeometry x="770" y="200" width="120" height="40" as="geometry" />
        </mxCell>
        
        <!-- Kubernetes 集群区域 -->
        <mxCell id="aks-zone" value="Azure Kubernetes Service (AKS)" style="rounded=1;absoluteArcSize=1;arcSize=2;html=1;strokeColor=#4CAF50;gradientColor=none;shadow=0;fontSize=12;fontColor=#2E7D32;align=left;verticalAlign=top;spacing=10;spacingTop=-4;fillColor=#E8F5E8;fontStyle=1;" vertex="1" parent="1">
          <mxGeometry x="330" y="290" width="690" height="180" as="geometry" />
        </mxCell>
        
        <!-- 前端服务节点池 -->
        <mxCell id="frontend-nodepool" value="前端服务节点池" style="rounded=1;absoluteArcSize=1;arcSize=2;html=1;strokeColor=#81C784;gradientColor=none;shadow=0;fontSize=11;fontColor=#2E7D32;align=left;verticalAlign=top;spacing=10;spacingTop=-4;fillColor=#F1F8E9;dashed=1;" vertex="1" parent="1">
          <mxGeometry x="350" y="330" width="180" height="120" as="geometry" />
        </mxCell>
        
        <mxCell id="web-pod1" value="Web App&#xa;Pod" style="strokeColor=#4CAF50;shadow=1;strokeWidth=1;rounded=1;absoluteArcSize=1;arcSize=2;fillColor=#ffffff;fontColor=#2E7D32;fontSize=10;" vertex="1" parent="1">
          <mxGeometry x="370" y="360" width="60" height="35" as="geometry" />
        </mxCell>
        
        <mxCell id="web-pod2" value="Web App&#xa;Pod" style="strokeColor=#4CAF50;shadow=1;strokeWidth=1;rounded=1;absoluteArcSize=1;arcSize=2;fillColor=#ffffff;fontColor=#2E7D32;fontSize=10;" vertex="1" parent="1">
          <mxGeometry x="450" y="360" width="60" height="35" as="geometry" />
        </mxCell>
        
        <mxCell id="nginx-ingress" value="NGINX&#xa;Ingress" style="strokeColor=#4CAF50;shadow=1;strokeWidth=1;rounded=1;absoluteArcSize=1;arcSize=2;fillColor=#ffffff;fontColor=#2E7D32;fontSize=10;" vertex="1" parent="1">
          <mxGeometry x="410" y="410" width="60" height="30" as="geometry" />
        </mxCell>
        
        <!-- 后端服务节点池 -->
        <mxCell id="backend-nodepool" value="后端服务节点池" style="rounded=1;absoluteArcSize=1;arcSize=2;html=1;strokeColor=#81C784;gradientColor=none;shadow=0;fontSize=11;fontColor=#2E7D32;align=left;verticalAlign=top;spacing=10;spacingTop=-4;fillColor=#F1F8E9;dashed=1;" vertex="1" parent="1">
          <mxGeometry x="550" y="330" width="220" height="120" as="geometry" />
        </mxCell>
        
        <mxCell id="user-service-pod" value="用户服务&#xa;Pod" style="strokeColor=#4CAF50;shadow=1;strokeWidth=1;rounded=1;absoluteArcSize=1;arcSize=2;fillColor=#ffffff;fontColor=#2E7D32;fontSize=10;" vertex="1" parent="1">
          <mxGeometry x="570" y="360" width="60" height="35" as="geometry" />
        </mxCell>
        
        <mxCell id="order-service-pod" value="订单服务&#xa;Pod" style="strokeColor=#4CAF50;shadow=1;strokeWidth=1;rounded=1;absoluteArcSize=1;arcSize=2;fillColor=#ffffff;fontColor=#2E7D32;fontSize=10;" vertex="1" parent="1">
          <mxGeometry x="650" y="360" width="60" height="35" as="geometry" />
        </mxCell>
        
        <mxCell id="payment-service-pod" value="支付服务&#xa;Pod" style="strokeColor=#4CAF50;shadow=1;strokeWidth=1;rounded=1;absoluteArcSize=1;arcSize=2;fillColor=#ffffff;fontColor=#2E7D32;fontSize=10;" vertex="1" parent="1">
          <mxGeometry x="570" y="410" width="60" height="35" as="geometry" />
        </mxCell>
        
        <mxCell id="message-service-pod" value="消息服务&#xa;Pod" style="strokeColor=#4CAF50;shadow=1;strokeWidth=1;rounded=1;absoluteArcSize=1;arcSize=2;fillColor=#ffffff;fontColor=#2E7D32;fontSize=10;" vertex="1" parent="1">
          <mxGeometry x="650" y="410" width="60" height="35" as="geometry" />
        </mxCell>
        
        <!-- 监控节点池 -->
        <mxCell id="monitoring-nodepool" value="监控节点池" style="rounded=1;absoluteArcSize=1;arcSize=2;html=1;strokeColor=#81C784;gradientColor=none;shadow=0;fontSize=11;fontColor=#2E7D32;align=left;verticalAlign=top;spacing=10;spacingTop=-4;fillColor=#F1F8E9;dashed=1;" vertex="1" parent="1">
          <mxGeometry x="790" y="330" width="210" height="120" as="geometry" />
        </mxCell>
        
        <mxCell id="prometheus" value="Prometheus" style="strokeColor=#4CAF50;shadow=1;strokeWidth=1;rounded=1;absoluteArcSize=1;arcSize=2;fillColor=#ffffff;fontColor=#2E7D32;fontSize=10;" vertex="1" parent="1">
          <mxGeometry x="810" y="360" width="80" height="30" as="geometry" />
        </mxCell>
        
        <mxCell id="grafana" value="Grafana" style="strokeColor=#4CAF50;shadow=1;strokeWidth=1;rounded=1;absoluteArcSize=1;arcSize=2;fillColor=#ffffff;fontColor=#2E7D32;fontSize=10;" vertex="1" parent="1">
          <mxGeometry x="910" y="360" width="70" height="30" as="geometry" />
        </mxCell>
        
        <mxCell id="elk" value="ELK Stack" style="strokeColor=#4CAF50;shadow=1;strokeWidth=1;rounded=1;absoluteArcSize=1;arcSize=2;fillColor=#ffffff;fontColor=#2E7D32;fontSize=10;" vertex="1" parent="1">
          <mxGeometry x="850" y="410" width="80" height="30" as="geometry" />
        </mxCell>
        
        <!-- 数据服务层 -->
        <mxCell id="data-services-zone" value="Azure 数据服务" style="rounded=1;absoluteArcSize=1;arcSize=2;html=1;strokeColor=#FF9800;gradientColor=none;shadow=0;fontSize=12;fontColor=#E65100;align=left;verticalAlign=top;spacing=10;spacingTop=-4;fillColor=#FFF3E0;fontStyle=1;" vertex="1" parent="1">
          <mxGeometry x="330" y="500" width="690" height="100" as="geometry" />
        </mxCell>
        
        <mxCell id="azure-sql" value="Azure SQL&#xa;Database" style="strokeColor=#FF9800;shadow=1;strokeWidth=1;rounded=1;absoluteArcSize=1;arcSize=2;fillColor=#ffffff;fontColor=#E65100;fontSize=11;fontStyle=1;" vertex="1" parent="1">
          <mxGeometry x="360" y="540" width="100" height="45" as="geometry" />
        </mxCell>
        
        <mxCell id="redis-cache" value="Azure Cache&#xa;for Redis" style="strokeColor=#FF9800;shadow=1;strokeWidth=1;rounded=1;absoluteArcSize=1;arcSize=2;fillColor=#ffffff;fontColor=#E65100;fontSize=11;fontStyle=1;" vertex="1" parent="1">
          <mxGeometry x="490" y="540" width="100" height="45" as="geometry" />
        </mxCell>
        
        <mxCell id="cosmos-db" value="Azure Cosmos DB" style="strokeColor=#FF9800;shadow=1;strokeWidth=1;rounded=1;absoluteArcSize=1;arcSize=2;fillColor=#ffffff;fontColor=#E65100;fontSize=11;fontStyle=1;" vertex="1" parent="1">
          <mxGeometry x="620" y="540" width="100" height="45" as="geometry" />
        </mxCell>
        
        <mxCell id="blob-storage" value="Azure Blob&#xa;Storage" style="strokeColor=#FF9800;shadow=1;strokeWidth=1;rounded=1;absoluteArcSize=1;arcSize=2;fillColor=#ffffff;fontColor=#E65100;fontSize=11;fontStyle=1;" vertex="1" parent="1">
          <mxGeometry x="750" y="540" width="100" height="45" as="geometry" />
        </mxCell>
        
        <mxCell id="service-bus" value="Azure Service Bus" style="strokeColor=#FF9800;shadow=1;strokeWidth=1;rounded=1;absoluteArcSize=1;arcSize=2;fillColor=#ffffff;fontColor=#E65100;fontSize=11;fontStyle=1;" vertex="1" parent="1">
          <mxGeometry x="880" y="540" width="120" height="45" as="geometry" />
        </mxCell>
        
        <!-- 安全和网络层 -->
        <mxCell id="security-zone" value="安全 &amp; 网络" style="rounded=1;absoluteArcSize=1;arcSize=2;html=1;strokeColor=#9C27B0;gradientColor=none;shadow=0;fontSize=12;fontColor=#6A1B9A;align=left;verticalAlign=top;spacing=10;spacingTop=-4;fillColor=#F3E5F5;fontStyle=1;" vertex="1" parent="1">
          <mxGeometry x="330" y="630" width="690" height="60" as="geometry" />
        </mxCell>
        
        <mxCell id="key-vault" value="Azure Key Vault" style="strokeColor=#9C27B0;shadow=1;strokeWidth=1;rounded=1;absoluteArcSize=1;arcSize=2;fillColor=#ffffff;fontColor=#6A1B9A;fontSize=11;fontStyle=1;" vertex="1" parent="1">
          <mxGeometry x="360" y="655" width="120" height="25" as="geometry" />
        </mxCell>
        
        <mxCell id="vnet" value="Virtual Network" style="strokeColor=#9C27B0;shadow=1;strokeWidth=1;rounded=1;absoluteArcSize=1;arcSize=2;fillColor=#ffffff;fontColor=#6A1B9A;fontSize=11;fontStyle=1;" vertex="1" parent="1">
          <mxGeometry x="510" y="655" width="120" height="25" as="geometry" />
        </mxCell>
        
        <mxCell id="aad" value="Azure Active Directory" style="strokeColor=#9C27B0;shadow=1;strokeWidth=1;rounded=1;absoluteArcSize=1;arcSize=2;fillColor=#ffffff;fontColor=#6A1B9A;fontSize=11;fontStyle=1;" vertex="1" parent="1">
          <mxGeometry x="660" y="655" width="140" height="25" as="geometry" />
        </mxCell>
        
        <mxCell id="network-security" value="Network Security Groups" style="strokeColor=#9C27B0;shadow=1;strokeWidth=1;rounded=1;absoluteArcSize=1;arcSize=2;fillColor=#ffffff;fontColor=#6A1B9A;fontSize=11;fontStyle=1;" vertex="1" parent="1">
          <mxGeometry x="830" y="655" width="160" height="25" as="geometry" />
        </mxCell>
        
        <!-- 连接线 -->
        <mxCell id="flow1" style="edgeStyle=orthogonalEdgeStyle;rounded=0;orthogonalLoop=1;jettySize=auto;html=1;strokeColor=#4284F3;strokeWidth=3;startArrow=none;endArrow=block;" edge="1" parent="1" source="users" target="cdn">
          <mxGeometry relative="1" as="geometry" />
        </mxCell>
        
        <mxCell id="flow2" style="edgeStyle=orthogonalEdgeStyle;rounded=0;orthogonalLoop=1;jettySize=auto;html=1;strokeColor=#4284F3;strokeWidth=2;" edge="1" parent="1" source="cdn" target="waf">
          <mxGeometry relative="1" as="geometry" />
        </mxCell>
        
        <mxCell id="flow3" style="edgeStyle=orthogonalEdgeStyle;rounded=0;orthogonalLoop=1;jettySize=auto;html=1;strokeColor=#4284F3;strokeWidth=2;" edge="1" parent="1" source="waf" target="load-balancer">
          <mxGeometry relative="1" as="geometry" />
        </mxCell>
        
        <mxCell id="flow4" style="edgeStyle=orthogonalEdgeStyle;rounded=0;orthogonalLoop=1;jettySize=auto;html=1;strokeColor=#4284F3;strokeWidth=2;" edge="1" parent="1" source="load-balancer" target="api-management">
          <mxGeometry relative="1" as="geometry" />
        </mxCell>
        
        <mxCell id="flow5" style="edgeStyle=orthogonalEdgeStyle;rounded=0;orthogonalLoop=1;jettySize=auto;html=1;strokeColor=#4284F3;strokeWidth=2;" edge="1" parent="1" source="api-management" target="nginx-ingress">
          <mxGeometry relative="1" as="geometry" />
        </mxCell>
        
        <mxCell id="flow6" style="edgeStyle=orthogonalEdgeStyle;rounded=0;orthogonalLoop=1;jettySize=auto;html=1;strokeColor=#4CAF50;strokeWidth=2;" edge="1" parent="1" source="nginx-ingress" target="user-service-pod">
          <mxGeometry relative="1" as="geometry" />
        </mxCell>
        
        <mxCell id="flow7" style="edgeStyle=orthogonalEdgeStyle;rounded=0;orthogonalLoop=1;jettySize=auto;html=1;strokeColor=#FF9800;strokeWidth=2;" edge="1" parent="1" source="user-service-pod" target="azure-sql">
          <mxGeometry relative="1" as="geometry" />
        </mxCell>
        
        <mxCell id="flow8" style="edgeStyle=orthogonalEdgeStyle;rounded=0;orthogonalLoop=1;jettySize=auto;html=1;strokeColor=#FF9800;strokeWidth=2;" edge="1" parent="1" source="order-service-pod" target="redis-cache">
          <mxGeometry relative="1" as="geometry" />
        </mxCell>
        
        <!-- 图例 -->
        <mxCell id="legend" value="图例说明" style="rounded=1;absoluteArcSize=1;arcSize=2;html=1;strokeColor=#cccccc;gradientColor=none;shadow=1;fontSize=12;fontColor=#333333;align=left;verticalAlign=top;spacing=10;spacingTop=-4;fillColor=#ffffff;fontStyle=1;" vertex="1" parent="1">
          <mxGeometry x="1080" y="120" width="200" height="200" as="geometry" />
        </mxCell>
        
        <mxCell id="legend-edge" value="边缘服务" style="strokeColor=#1976D2;shadow=0;strokeWidth=1;rounded=1;absoluteArcSize=1;arcSize=2;fillColor=#E3F2FD;fontColor=#1976D2;fontSize=10;" vertex="1" parent="1">
          <mxGeometry x="1100" y="150" width="70" height="20" as="geometry" />
        </mxCell>
        
        <mxCell id="legend-k8s" value="Kubernetes" style="strokeColor=#4CAF50;shadow=0;strokeWidth=1;rounded=1;absoluteArcSize=1;arcSize=2;fillColor=#E8F5E8;fontColor=#2E7D32;fontSize=10;" vertex="1" parent="1">
          <mxGeometry x="1100" y="180" width="70" height="20" as="geometry" />
        </mxCell>
        
        <mxCell id="legend-data" value="数据服务" style="strokeColor=#FF9800;shadow=0;strokeWidth=1;rounded=1;absoluteArcSize=1;arcSize=2;fillColor=#FFF3E0;fontColor=#E65100;fontSize=10;" vertex="1" parent="1">
          <mxGeometry x="1100" y="210" width="70" height="20" as="geometry" />
        </mxCell>
        
        <mxCell id="legend-security" value="安全网络" style="strokeColor=#9C27B0;shadow=0;strokeWidth=1;rounded=1;absoluteArcSize=1;arcSize=2;fillColor=#F3E5F5;fontColor=#6A1B9A;fontSize=10;" vertex="1" parent="1">
          <mxGeometry x="1100" y="240" width="70" height="20" as="geometry" />
        </mxCell>
        
        <mxCell id="legend-flow" value="─── 数据流向" style="strokeColor=#4284F3;strokeWidth=2;fontSize=10;fontColor=#4284F3;fillColor=none;" vertex="1" parent="1">
          <mxGeometry x="1100" y="280" width="100" height="20" as="geometry" />
        </mxCell>
        
      </root>
    </mxGraphModel>
  </diagram>
</mxfile>